# xmcd
# 
# Track frame offsets:
#     150
#     12932
#     24845
#     37578
#     50379
#     62912
#     75708
#     89003
#     101921
#     114010
#     125867
#     139429
#     149984
#     162529
#     174876
#     186954
#     197638
#     208245
#     220278
#     233364
#     243492
#     257187
#     269740
#     281586
#     292972
#     303816
# 
# Disc length: 4233
# 
# Revision: 4
# Processed by: cddbd v1.5.2PL0 Copyright (c) Steve Scherf et al.
# Submitted via: fre:ac v1.0.17
# 
DISCID=8810871a
DTITLE=Various Artist - As Good As It Gets - Western Swing
DYEAR=2000
DGENRE=Country
TTITLE0=Spade Cooley - Oklamoma Stomp
TTITLE1=Bob Wills and His Texas Playboys - Time Changes Everything
TTITLE2=Al Dexter - Pistol Packin' Mama
TTITLE3=Gene Autry and Smilie Burnette - Riding Down The Canyon
TTITLE4=Jack Guthrie - Oklahoma Hills
TTITLE5=Sons Of The Pioneers feat. Roy Rogers - Roving Cowboy
TTITLE6=Merle Travis - So Round, So Firm, So Fully Packed
TTITLE7=Red Foley - Your Head In Shame
TTITLE8=Adolph Hofner - South Texas Swing
TTITLE9=Bob Wills and His Texas Playboys - New San Antonio Rose
TTITLE10=Tex Ritter - There's A New Moon Over My Shoulder
TTITLE11=Hank Thompson and His Brazos Valley Boys - Swing Wide Your Gate Of Love
TTITLE12=Jimmy Walker - Detour
TTITLE13=Sons Of The Pioneers - Cool Water
TTITLE14=Milton Brown and The Musical Brownies - Easy Ridin' Papa
TTITLE15=Bill Boyd and His Cowboy Ramblers - Too Blue To Care
TTITLE16=The Saddle Tramps - Hot As I Am
TTITLE17=Gene Autry - Home On The Range
TTITLE18=Tex Williams - Smoke Smoke Smoke That Cigarette
TTITLE19=Johnny Tyler - Oakie Boogie
TTITLE20=The Prairie Ramblers Featuring Patsy Montana and Charles Hurt - Swingin' Done The Orchard Lane
TTITLE21=Jimmy Wakely - One Has My Heart
TTITLE22=Kohnny Bond - The Daughter Of Jole Blon'
TTITLE23=Texas Ruby and Curly Fox - Would It Make Any Difference To You
TTITLE24=Hank Penny - Sweet Talkin' Mama
TTITLE25=Bob Wills - Osage Stomp
EXTD=Disky - DO 247362
EXTT0=
EXTT1=
EXTT2=
EXTT3=
EXTT4=
EXTT5=
EXTT6=
EXTT7=
EXTT8=
EXTT9=
EXTT10=
EXTT11=
EXTT12=
EXTT13=
EXTT14=
EXTT15=
EXTT16=
EXTT17=
EXTT18=
EXTT19=
EXTT20=
EXTT21=
EXTT22=
EXTT23=
EXTT24=
EXTT25=
PLAYORDER=
